<svg version="1" xmlns="http://www.w3.org/2000/svg" width="682.667" height="682.667" viewBox="0 0 512.000000 512.000000"><path d="M236.5 1.6c-1.6.2-7.3.9-12.5 1.5-43.8 5-92.4 25.5-127.7 54C45.2 98.3 12.1 157.4 2.8 224c-1.7 12.5-1.7 51.5 0 64 6.8 48.7 26.4 93.8 56.5 130.3 9.7 11.6 25.5 27.4 37 36.6 35.1 28.4 80.5 47.7 127.7 54.3 12.5 1.7 51.5 1.7 64 0 47.2-6.6 92.6-25.9 127.7-54.3 51.1-41.2 84.2-100.3 93.5-166.9 1.7-12.5 1.7-51.5 0-64-6.8-48.7-26.4-93.8-56.5-130.3-9.7-11.6-25.5-27.4-37-36.6-34.3-27.7-78.6-46.9-124.2-53.7-9.5-1.4-48.6-2.7-55-1.8zm13.8 30.6c-.2 1.3-4.6 37.1-9.8 79.7l-9.5 77.4V362h47v-24c0-13.2.2-24 .5-24 .2 0 24.4 16.9 53.8 37.5l53.4 37.4 16.4-4.6c9-2.5 16.6-4.8 16.8-4.9.2-.2-2-8.6-4.9-18.7l-5.4-18.4-58.2-40.8c-49.8-34.9-58.2-41.1-57.1-42.4.7-.8 20.8-24.3 44.7-52.2l43.6-50.7 7.3-23.8 7.3-23.7-4.4-4.4-4.4-4.4-21.7 12.4-21.7 12.4-31.7 38.3-31.8 38.3-.6-11.4c-.4-6.3-5.2-44.2-10.8-84.3-5.6-40-10.1-73.5-10.1-74.2 0-1.7 6.4-1.8 21.1-.4 39.8 3.9 80.5 20.2 112.9 45.1 12.2 9.3 33.6 30.7 42.9 42.9 24.9 32.4 41.2 73.1 45.1 112.9 4 41.3-2.1 80.1-18.4 116.2-11.8 26-26 46.5-47 67.5s-41.5 35.2-67.5 47C312 478.9 273.2 485 231.9 481c-39.8-3.9-80.5-20.2-112.9-45.1-12.2-9.3-33.6-30.7-42.9-42.9-19.7-25.6-36.5-62.3-42-91.5-5.5-29.5-5.5-61.5 0-91 5.5-29.2 22.3-65.9 42-91.5 9.3-12.2 30.7-33.6 42.9-42.9 35.9-27.6 83.6-45.1 125.6-46 5.8-.1 6.1 0 5.7 2.1z"/></svg>